<?xml version="1.0" encoding="UTF-8" standalone="no"?>
<svg
   shape-rendering="geometricPrecision"
   text-rendering="geometricPrecision"
   image-rendering="optimizeQuality"
   fill-rule="evenodd"
   clip-rule="evenodd"
   viewBox="0 0 511.53 511.53"
   version="1.1"
   id="svg1"
   sodipodi:docname="copy-hyperlink-link-icon.svg"
   inkscape:version="1.4.3 (0d15f75, 2025-12-25)"
   width="394.254"
   height="394.254"
   inkscape:export-filename="icon128.png"
   inkscape:export-xdpi="31.167725"
   inkscape:export-ydpi="31.167725"
   xmlns:inkscape="http://www.inkscape.org/namespaces/inkscape"
   xmlns:sodipodi="http://sodipodi.sourceforge.net/DTD/sodipodi-0.dtd"
   xmlns="http://www.w3.org/2000/svg"
   xmlns:svg="http://www.w3.org/2000/svg">
  <defs
     id="defs1" />
  <sodipodi:namedview
     id="namedview1"
     pagecolor="#ffffff"
     bordercolor="#000000"
     borderopacity="0.25"
     inkscape:showpageshadow="2"
     inkscape:pageopacity="0.0"
     inkscape:pagecheckerboard="0"
     inkscape:deskcolor="#d1d1d1"
     showgrid="false"
     inkscape:zoom="1.1406956"
     inkscape:cx="-21.478123"
     inkscape:cy="429.56247"
     inkscape:window-width="1718"
     inkscape:window-height="1360"
     inkscape:window-x="1713"
     inkscape:window-y="0"
     inkscape:window-maximized="0"
     inkscape:current-layer="svg1" />
  <path
     fill-rule="nonzero"
     d="m 164.835,91.42 h 273.27 c 28.7,0 52.16,23.46 52.16,52.16 v 315.79 c 0,28.57 -23.58,52.16 -52.16,52.16 h -273.27 c -28.69,0 -52.15,-23.47 -52.15,-52.16 V 143.58 c 0,-28.72 23.44,-52.16 52.15,-52.16 z m 122.42,169.95 c -9.85,13.65 -30.59,-1.26 -20.8,-14.94 l 18.33,-25.47 a 59.675,59.675 0 0 1 17.1,-15.96 60.646,60.646 0 0 1 22.02,-8.22 c 16.4,-2.67 32.32,1.53 44.79,10.49 12.47,8.98 21.51,22.72 24.19,39.12 a 60.594,60.594 0 0 1 -0.79,23.49 59.474,59.474 0 0 1 -9.68,21.29 l -18.32,25.47 c -9.83,13.67 -30.61,-1.28 -20.77,-14.95 l 18.3,-25.46 c 2.71,-3.76 4.55,-7.92 5.55,-12.2 1.04,-4.45 1.17,-9.06 0.45,-13.51 -1.55,-9.47 -6.73,-17.37 -13.86,-22.5 -7.14,-5.14 -16.28,-7.53 -25.73,-5.98 -4.45,0.73 -8.77,2.32 -12.67,4.72 a 34.15,34.15 0 0 0 -9.8,9.14 z m 21.12,6.53 c 9.9,-13.61 30.51,1.27 20.71,14.95 l -34.04,51.43 c -9.84,13.58 -30.49,-1.29 -20.72,-14.94 z m 6.99,74.15 c 9.85,-13.67 30.61,1.28 20.78,14.95 l -17.97,24.98 c -4.74,6.58 -10.59,11.94 -17.11,15.96 a 60.398,60.398 0 0 1 -22.02,8.22 c -16.4,2.67 -32.31,-1.53 -44.78,-10.49 -12.47,-8.97 -21.51,-22.72 -24.19,-39.12 a 60.45,60.45 0 0 1 0.78,-23.46 59.833,59.833 0 0 1 9.69,-21.27 l 18.01,-25.09 c 9.87,-13.59 30.54,1.35 20.75,14.99 l -17.98,24.99 a 33.93,33.93 0 0 0 -5.56,12.19 34.893,34.893 0 0 0 -0.43,13.5 l 0.01,0.07 c 1.54,9.43 6.71,17.32 13.84,22.44 7.13,5.13 16.24,7.53 25.69,6 l 0.07,-0.02 c 4.44,-0.73 8.76,-2.32 12.63,-4.71 3.74,-2.3 7.1,-5.37 9.81,-9.14 z m -257.52,8.77 c 0,10.1 -8.19,18.29 -18.29,18.29 -10.1,0 -18.29,-8.19 -18.29,-18.29 V 52.16 C 21.265,23.44 44.705,0 73.425,0 h 273.26 c 10.1,0 18.29,8.19 18.29,18.29 0,10.1 -8.19,18.29 -18.29,18.29 H 73.425 c -8.54,0 -15.58,7.04 -15.58,15.58 z M 438.105,128 h -273.27 c -8.53,0 -15.57,7.04 -15.57,15.58 v 315.79 c 0,8.52 7.06,15.58 15.57,15.58 h 273.27 c 8.59,0 15.58,-6.99 15.58,-15.58 V 143.58 c 0,-8.52 -7.06,-15.58 -15.58,-15.58 z"
     id="path1"
     style="fill:#ff7f2a" />
</svg>
